# xmcd CD database file
#
# Track frame offsets:
#	150
#	15173
#	27955
#	44716
#	56844
#	69828
#	85450
#	100320
#	109685
#	119386
#	133754
#	150121
#	161960
#	182040
#	194736
#	211251
#
# Disc length: 3029 seconds
#
# Revision: 2
# Processed by: cddbd v1.5.2PL0 Copyright (c) Steve Scherf et al.
# Submitted via: CDex 1.70beta2
#
DISCID=dc0bd310
DTITLE=JME - Boy Better Know Edition 1 - Shh Hut Yuh Muh
DYEAR=2006
DGENRE=Grime
TTITLE0=Serious Remix
TTITLE1=Just Being Me (Davinche Production)
TTITLE2=96 Bars Of Revenge
TTITLE3=A W O H
TTITLE4=Deadout (J Sweet Production)
TTITLE5=Don't Get Rude Ft. Skepta
TTITLE6=Old School
TTITLE7=Freestyle
TTITLE8=Subbuteo
TTITLE9=Certified Badman
TTITLE10=Shutup And Dance (Plastician Production)
TTITLE11=Final Boss (Balistiq Production)
TTITLE12=That's Hype Ft. Syer, Wiley and Scorcher
TTITLE13=Reach That High - Trigz
TTITLE14=Eskiboy - Wiley
TTITLE15=Fuckin Widda Team - Skepta
EXTD=YEAR: 2006
EXTT0=
EXTT1=
EXTT2=
EXTT3=
EXTT4=
EXTT5=
EXTT6=
EXTT7=
EXTT8=
EXTT9=
EXTT10=
EXTT11=
EXTT12=
EXTT13=
EXTT14=
EXTT15=
PLAYORDER=
